<?xml version="1.0" standalone="no"?>
<!DOCTYPE svg PUBLIC "-//W3C//DTD SVG 20010904//EN"
 "http://www.w3.org/TR/2001/REC-SVG-20010904/DTD/svg10.dtd">
<svg version="1.0" xmlns="http://www.w3.org/2000/svg"
 width="500.000000pt" height="500.000000pt" viewBox="0 0 500.000000 500.000000"
 preserveAspectRatio="xMidYMid meet">
<metadata>
Created by potrace 1.11, written by Peter Selinger 2001-2013
</metadata>
<g transform="translate(0.000000,500.000000) scale(0.100000,-0.100000)"
fill="#000000" stroke="none">
<path d="M775 4988 c-164 -38 -245 -71 -354 -142 -171 -111 -304 -283 -371
-476 -51 -151 -50 -90 -50 -1860 0 -1155 3 -1672 11 -1722 60 -385 363 -697
752 -773 60 -12 343 -14 1762 -12 930 1 1704 6 1720 10 107 28 151 44 240 88
265 131 461 397 505 686 12 81 9 3409 -4 3462 -56 239 -186 439 -371 570 -94
67 -157 101 -242 130 -148 52 -84 50 -1883 50 -1012 -1 -1691 -5 -1715 -11z"/>
</g>
</svg>
